# xmcd
#
# Track frame offsets:
#	150
#	39199
#	76686
#	118049
#	144020
#	179086
#	219456
#	247893
#	272892
#	297415
#
# Disc length: 4246 seconds
# Revision: 0
# Processed by: cddbd v1.5.2PL0 Copyright (c) Steve Scherf et al.
# Submitted via: dBpowerAMP V12.0
#
DISCID=8910940a
DTITLE=Tanja Heitmann - Das Geheimnis des Walfischknochens
DYEAR=2013
DGENRE=Hörbuch
TTITLE0=0501
TTITLE1=0502
TTITLE2=0503
TTITLE3=0504
TTITLE4=0505
TTITLE5=0506
TTITLE6=0507
TTITLE7=0508
TTITLE8=0509
TTITLE9=0510
EXTD=
EXTT0=
EXTT1=
EXTT2=
EXTT3=
EXTT4=
EXTT5=
EXTT6=
EXTT7=
EXTT8=
EXTT9=
PLAYORDER=
